<mxfile host="65bd71144e">
    <diagram id="2Bb33UaujHxbdKAuJku1" name="Page-1">
        <mxGraphModel dx="681" dy="570" grid="1" gridSize="10" guides="1" tooltips="1" connect="1" arrows="1" fold="1" page="1" pageScale="1" pageWidth="827" pageHeight="1169" math="0" shadow="0">
            <root>
                <mxCell id="0"/>
                <mxCell id="1" parent="0"/>
                <mxCell id="McgK3VblPsdl0NoJwlGs-1" value="Mongo DB" style="shape=cylinder3;whiteSpace=wrap;html=1;boundedLbl=1;backgroundOutline=1;size=15;" parent="1" vertex="1">
                    <mxGeometry x="450" y="210" width="150" height="170" as="geometry"/>
                </mxCell>
                <mxCell id="McgK3VblPsdl0NoJwlGs-2" value="API" style="rounded=0;whiteSpace=wrap;html=1;verticalAlign=top;" parent="1" vertex="1">
                    <mxGeometry x="40" y="60" width="280" height="460" as="geometry"/>
                </mxCell>
                <mxCell id="McgK3VblPsdl0NoJwlGs-5" value="GET Xray Data" style="rounded=1;whiteSpace=wrap;html=1;verticalAlign=bottom;" parent="1" vertex="1">
                    <mxGeometry x="70" y="320" width="220" height="170" as="geometry"/>
                </mxCell>
                <mxCell id="McgK3VblPsdl0NoJwlGs-6" value="&lt;div style=&quot;&quot;&gt;Filter:&lt;/div&gt;&lt;div style=&quot;&quot;&gt;Required:&amp;nbsp;&lt;/div&gt;&lt;div style=&quot;&quot;&gt;&lt;ol&gt;&lt;li&gt;ID&lt;/li&gt;&lt;li&gt;FirstName&lt;/li&gt;&lt;li&gt;LastName&amp;nbsp;&lt;/li&gt;&lt;li&gt;Age&amp;nbsp;&lt;/li&gt;&lt;/ol&gt;&lt;/div&gt;" style="text;html=1;strokeColor=none;fillColor=none;align=left;verticalAlign=middle;whiteSpace=wrap;rounded=0;" parent="1" vertex="1">
                    <mxGeometry x="105" y="340" width="150" height="110" as="geometry"/>
                </mxCell>
                <mxCell id="McgK3VblPsdl0NoJwlGs-7" value="" style="group" parent="1" vertex="1" connectable="0">
                    <mxGeometry x="70" y="100" width="220" height="170" as="geometry"/>
                </mxCell>
                <mxCell id="McgK3VblPsdl0NoJwlGs-3" value="GET patient&amp;nbsp;" style="rounded=1;whiteSpace=wrap;html=1;verticalAlign=bottom;" parent="McgK3VblPsdl0NoJwlGs-7" vertex="1">
                    <mxGeometry width="220" height="170" as="geometry"/>
                </mxCell>
                <mxCell id="McgK3VblPsdl0NoJwlGs-4" value="Filter:&amp;nbsp;&lt;br&gt;&lt;ol&gt;&lt;li&gt;ID&lt;/li&gt;&lt;li&gt;FirstName, LastName&lt;/li&gt;&lt;li&gt;Age (greater, less than)&lt;/li&gt;&lt;li&gt;Gender&lt;/li&gt;&lt;/ol&gt;" style="text;html=1;strokeColor=none;fillColor=none;align=left;verticalAlign=middle;whiteSpace=wrap;rounded=0;" parent="McgK3VblPsdl0NoJwlGs-7" vertex="1">
                    <mxGeometry x="20" y="10" width="180" height="130" as="geometry"/>
                </mxCell>
            </root>
        </mxGraphModel>
    </diagram>
</mxfile>